{
  "title": "Fast and Furious 7 2015 1080p HC HDRip x264 AC3-KINGPOOO",
  "uid": 11897540,
  "size": 5396035169,
  "categoryP": "video",
  "categoryS": "movies",
  "magnet": "?xt=urn:btih:fa6920ed8af3903fcb43bda075b3e929804ec8a3&amp;dn=Fast+and+Furious+7+2015+1080p+HC+HDRip+x264+AC3-KINGPOOO&amp;tr=udp%3A%2F%2Ftracker.openbittorrent.com%3A80&amp;tr=udp%3A%2F%2Fopen.demonii.com%3A1337&amp;tr=udp%3A%2F%2Ftracker.coppersurfer.tk%3A6969&amp;tr=udp%3A%2F%2Fexodus.desync.com%3A6969",
  "seeders": 75,
  "leechers": 10,
  "uploader": "xxxlavalxxx",
  "files": 2,
  "time": 1431206852,
  "description": " &lt;a href=&quot;http://extraimago.com/image/wGW&quot; rel=&quot;nofollow&quot; target=&quot;_NEW&quot;&gt;http://extraimago.com/image/wGW&lt;/a&gt;\n &lt;a href=&quot;\nhttp://www.imdb.com/title/tt2820852/&quot; rel=&quot;nofollow&quot; target=&quot;_NEW&quot;&gt;\nhttp://www.imdb.com/title/tt2820852/&lt;/a&gt;\n\n\nDeckard Shaw seeks revenge against Dominic Toretto and his family for the death of his brother.\n\nDirector: James Wan\nWriters: Chris Morgan, Gary Scott Thompson (characters)\nStars: Vin Diesel, Paul Walker, Dwayne Johnson\nGenres: Action | Crime | Thriller\nCountry: Japan | USA\nLanguage: English\n\n\nFormat                      : MPEG-4\nFormat profile              : Base Media\nCodec ID                    : isom\nFile size                   : 5.03 GiB\nDuration                    : 2h 17mn\nOverall bit rate            : 5 243 Kbps\nWriting application         : ShanaEncoder\n\nVideo\nID                          : 1\nFormat                      : AVC\nFormat/Info                 : Advanced Video Codec\nFormat profile              : Baseline@L4\nFormat settings, CABAC      : No\nFormat settings, ReFrames   : 1 frame\nCodec ID                    : avc1\nCodec ID/Info               : Advanced Video Coding\nDuration                    : 2h 17mn\nBit rate                    : 5 045 Kbps\nWidth                       : 1 920 pixels\nHeight                      : 1 080 pixels\nDisplay aspect ratio        : 16:9\nFrame rate mode             : Constant\nFrame rate                  : 29.970 fps\nColor space                 : YUV\nChroma subsampling          : 4:2:0\nBit depth                   : 8 bits\nScan type                   : Progressive\nBits/(Pixel*Frame)          : 0.081\nStream size                 : 4.84 GiB (96%)\nWriting library             : x264 core 142\n\n\nAudio\nID                          : 2\nFormat                      : AC-3\nFormat/Info                 : Audio Coding 3\nMode extension              : CM (complete main)\nFormat settings, Endianness : Big\nCodec ID                    : ac-3\nDuration                    : 2h 17mn\nBit rate mode               : Constant\nBit rate                    : 192 Kbps\nChannel(s)                  : 2 channels\nChannel positions           : Front: L R\nSampling rate               : 44.1 KHz\nBit depth                   : 16 bits\nCompression mode            : Lossy\nStream size                 : 188 MiB (4%)\n\n &lt;a href=&quot;\nhttp://extraimago.com/image/NjX&quot; rel=&quot;nofollow&quot; target=&quot;_NEW&quot;&gt;\nhttp://extraimago.com/image/NjX&lt;/a&gt; &lt;a href=&quot;\nhttp://extraimago.com/image/Njg&quot; rel=&quot;nofollow&quot; target=&quot;_NEW&quot;&gt;\nhttp://extraimago.com/image/Njg&lt;/a&gt; &lt;a href=&quot;\nhttp://extraimago.com/image/Nj5&quot; rel=&quot;nofollow&quot; target=&quot;_NEW&quot;&gt;\nhttp://extraimago.com/image/Nj5&lt;/a&gt; &lt;a href=&quot;\nhttp://extraimago.com/image/NjD&quot; rel=&quot;nofollow&quot; target=&quot;_NEW&quot;&gt;\nhttp://extraimago.com/image/NjD&lt;/a&gt; &lt;a href=&quot;\nhttp://extraimago.com/image/NjF&quot; rel=&quot;nofollow&quot; target=&quot;_NEW&quot;&gt;\nhttp://extraimago.com/image/NjF&lt;/a&gt;",
  "parsed": {
    "xt": "urn:btih:fa6920ed8af3903fcb43bda075b3e929804ec8a3",
    "dn": "Fast and Furious 7 2015 1080p HC HDRip x264 AC3-KINGPOOO",
    "tr": [
      "udp://exodus.desync.com:6969",
      "udp://open.demonii.com:1337",
      "udp://tracker.coppersurfer.tk:6969",
      "udp://tracker.openbittorrent.com:80"
    ],
    "infoHash": "fa6920ed8af3903fcb43bda075b3e929804ec8a3",
    "infoHashBuffer": {
      "type": "Buffer",
      "data": [
        250,
        105,
        32,
        237,
        138,
        243,
        144,
        63,
        203,
        67,
        189,
        160,
        117,
        179,
        233,
        41,
        128,
        78,
        200,
        163
      ]
    },
    "name": "Fast and Furious 7 2015 1080p HC HDRip x264 AC3-KINGPOOO",
    "announce": [
      "udp://exodus.desync.com:6969",
      "udp://open.demonii.com:1337",
      "udp://tracker.coppersurfer.tk:6969",
      "udp://tracker.openbittorrent.com:80"
    ],
    "urlList": []
  },
  "previous": 85,
  "peers": 6,
  "last_updated": "2016-12-25T18:40:22.744Z"
}